<svg width="1280" height="640" viewBox="0 0 1280 640" fill="none" xmlns="http://www.w3.org/2000/svg">
  <defs>
    <linearGradient id="bg" x1="120" y1="60" x2="1120" y2="580" gradientUnits="userSpaceOnUse">
      <stop stop-color="#F3F4F6"/>
      <stop offset="0.28" stop-color="#DDE3EA"/>
      <stop offset="0.62" stop-color="#CBD5E1"/>
      <stop offset="1" stop-color="#BFCBDA"/>
    </linearGradient>
    <linearGradient id="glass" x1="250" y1="180" x2="980" y2="470" gradientUnits="userSpaceOnUse">
      <stop stop-color="white" stop-opacity="0.55"/>
      <stop offset="1" stop-color="white" stop-opacity="0.18"/>
    </linearGradient>
    <linearGradient id="line" x1="290" y1="190" x2="910" y2="440" gradientUnits="userSpaceOnUse">
      <stop stop-color="#111111" stop-opacity="0.38"/>
      <stop offset="1" stop-color="#111111" stop-opacity="0.12"/>
    </linearGradient>
    <filter id="blur" x="164" y="127" width="952" height="386" filterUnits="userSpaceOnUse" color-interpolation-filters="sRGB">
      <feGaussianBlur stdDeviation="28"/>
    </filter>
  </defs>

  <rect width="1280" height="640" fill="url(#bg)"/>

  <circle cx="214" cy="152" r="126" fill="#FFFFFF" fill-opacity="0.46"/>
  <circle cx="1084" cy="502" r="148" fill="#FFFFFF" fill-opacity="0.26"/>
  <circle cx="946" cy="122" r="88" fill="#FFFFFF" fill-opacity="0.22"/>

  <g filter="url(#blur)">
    <rect x="248" y="182" width="784" height="274" rx="48" fill="#0F172A" fill-opacity="0.12"/>
  </g>

  <rect x="232" y="166" width="816" height="306" rx="52" fill="url(#glass)"/>
  <rect x="232.75" y="166.75" width="814.5" height="304.5" rx="51.25" stroke="white" stroke-opacity="0.58" stroke-width="1.5"/>

  <rect x="286" y="222" width="708" height="92" rx="32" fill="#111111" fill-opacity="0.07"/>
  <rect x="286.75" y="222.75" width="706.5" height="90.5" rx="31.25" stroke="white" stroke-opacity="0.34" stroke-width="1.5"/>

  <rect x="286" y="340" width="278" height="72" rx="24" fill="#111111" fill-opacity="0.06"/>
  <rect x="582" y="340" width="178" height="72" rx="24" fill="#111111" fill-opacity="0.06"/>
  <rect x="778" y="340" width="216" height="72" rx="24" fill="#111111" fill-opacity="0.06"/>

  <path d="M352.06 264.5C363.47 264.5 372.72 255.25 372.72 243.84C372.72 255.25 381.97 264.5 393.38 264.5C381.97 264.5 372.72 273.75 372.72 285.16C372.72 273.75 363.47 264.5 352.06 264.5Z" fill="#111111" fill-opacity="0.82"/>
  <path d="M400.53 234.72C406.32 234.72 411.02 230.03 411.02 224.23C411.02 230.03 415.72 234.72 421.51 234.72C415.72 234.72 411.02 239.42 411.02 245.21C411.02 239.42 406.32 234.72 400.53 234.72Z" fill="#111111" fill-opacity="0.68"/>
  <path d="M406.88 287.72C410.47 287.72 413.38 284.81 413.38 281.22C413.38 284.81 416.29 287.72 419.88 287.72C416.29 287.72 413.38 290.63 413.38 294.22C413.38 290.63 410.47 287.72 406.88 287.72Z" fill="#111111" fill-opacity="0.54"/>

  <text x="456" y="273" fill="#111111" font-family="SF Pro Display, Inter, Arial, sans-serif" font-size="48" font-weight="700" letter-spacing="-0.04em">Cleo</text>
  <text x="286" y="110" fill="#111111" font-family="SF Pro Display, Inter, Arial, sans-serif" font-size="22" font-weight="600" letter-spacing="0.06em" opacity="0.62">APP-FIRST PERSONAL AI ASSISTANT</text>
  <text x="286" y="377" fill="#111111" font-family="SF Pro Display, Inter, Arial, sans-serif" font-size="24" font-weight="600" opacity="0.82">Pointer-aware</text>
  <text x="606" y="377" fill="#111111" font-family="SF Pro Display, Inter, Arial, sans-serif" font-size="24" font-weight="600" opacity="0.82">Local-first</text>
  <text x="806" y="377" fill="#111111" font-family="SF Pro Display, Inter, Arial, sans-serif" font-size="24" font-weight="600" opacity="0.82">Graph memory</text>

  <text x="286" y="540" fill="#111111" font-family="SF Pro Display, Inter, Arial, sans-serif" font-size="18" font-weight="500" opacity="0.64">Spotlight-like overlay • specialist actions • voice • visual context • open source</text>
</svg>
